<?xml version="1.0" encoding="utf-8"?>
<!-- Generator: Adobe Illustrator 16.0.0, SVG Export Plug-In . SVG Version: 6.00 Build 0)  -->
<!DOCTYPE svg PUBLIC "-//W3C//DTD SVG 1.1//EN" "http://www.w3.org/Graphics/SVG/1.1/DTD/svg11.dtd">
<svg version="1.1" id="Layer_1" xmlns="http://www.w3.org/2000/svg" xmlns:xlink="http://www.w3.org/1999/xlink" x="0px" y="0px"
	 width="500px" height="500px" viewBox="0 0 500 500" enable-background="new 0 0 500 500" xml:space="preserve">
<path fill="#231F20" d="M211.36,410.906"/>
<polygon fill="#001529" points="198.371,112.577 299.856,112.577 101.451,419.082 -0.036,419.082 "/>
<polygon fill="#1890FF" points="198.371,112.577 299.856,112.577 500.035,419.082 398.548,419.082 "/>
<path fill="#001529" d="M-0.036,419.08c0,0,87.24-119.811,213.054-95.896c125.812,23.917,205.529-64.243,227.378-165.04
	c0,0-35.431,208.274-170.063,208.274c-119.536,0-168.881,52.662-168.881,52.662H-0.036z"/>
<path fill="#1890FF" d="M499.147,419.082c0,0-87.239-119.811-213.053-95.896C160.284,347.102,80.566,258.944,58.718,158.145
	c0,0,35.431,208.276,170.062,208.276c119.536,0,168.881,52.661,168.881,52.661H499.147z"/>
</svg>
